HIERARCHY
ROOT Pelvis
{
	OFFSET 0.000000 0.000000 0.000000
	CHANNELS 6 Xposition Yposition Zposition Xrotation Yrotation Zrotation
	JOINT LeftUpLeg_virtual
	{
		OFFSET 0.000000 0.000000 0.000000
		CHANNELS 3 Xrotation Yrotation Zrotation
		JOINT LeftUpLeg
		{
			OFFSET 18.735201 -5.666702 -4.541200
			CHANNELS 3 Xrotation Yrotation Zrotation
			JOINT LeftLeg
			{
				OFFSET -0.021200 -31.938179 0.493100
				CHANNELS 3 Xrotation Yrotation Zrotation
				JOINT LeftFoot
				{
					OFFSET 0.021200 -31.938179 -4.336299
					CHANNELS 3 Xrotation Yrotation Zrotation
					JOINT LeftToeBase
					{
						OFFSET 0.943001 -26.722000 15.023500
						CHANNELS 3 Xrotation Yrotation Zrotation
						End Site
						{
							OFFSET 0 0 0
						}
					}
				}
			}
		}
	}
	JOINT RightUpLeg_virtual
	{
		OFFSET 0.000000 0.000000 0.000000
		CHANNELS 3 Xrotation Yrotation Zrotation
		JOINT RightUpLeg
		{
			OFFSET -18.735201 -5.666702 -4.541200
			CHANNELS 3 Xrotation Yrotation Zrotation
			JOINT RightLeg
			{
				OFFSET 0.018946 -31.938133 0.493100
				CHANNELS 3 Xrotation Yrotation Zrotation
				JOINT RightFoot
				{
					OFFSET -0.018946 -31.938126 -4.336299
					CHANNELS 3 Xrotation Yrotation Zrotation
					JOINT RightToeBase
					{
						OFFSET -0.943001 -26.722004 15.023500
						CHANNELS 3 Xrotation Yrotation Zrotation
						End Site
						{
							OFFSET 0 0 0
						}
					}
				}
			}
		}
	}
	JOINT Hips_virtual
	{
		OFFSET 0.000000 0.000000 0.000000
		CHANNELS 3 Xrotation Yrotation Zrotation
		JOINT Hips
		{
			OFFSET -0.000000 -0.000000 -0.000000
			CHANNELS 3 Xrotation Yrotation Zrotation
			JOINT Spine
			{
				OFFSET 0.000000 10.199997 -0.299500
				CHANNELS 3 Xrotation Yrotation Zrotation
				JOINT Spine1
				{
					OFFSET 0.000000 11.900002 -1.516600
					CHANNELS 3 Xrotation Yrotation Zrotation
					JOINT Spine2
					{
						OFFSET 0.000000 13.600006 -2.842500
						CHANNELS 3 Xrotation Yrotation Zrotation
						JOINT Neck_virtual
						{
							OFFSET 0.000000 0.000000 0.000000
							CHANNELS 3 Xrotation Yrotation Zrotation
							JOINT Neck
							{
								OFFSET 0.000000 9.624100 -2.890100
								CHANNELS 3 Xrotation Yrotation Zrotation
								JOINT Head
								{
									OFFSET 0.000000 14.068802 -1.351900
									CHANNELS 3 Xrotation Yrotation Zrotation
									End Site
									{
										OFFSET 0 0 0
									}
								}
							}
						}
						JOINT LeftShoulder_virtual
						{
							OFFSET 0.000000 0.000000 0.000000
							CHANNELS 3 Xrotation Yrotation Zrotation
							JOINT LeftShoulder
							{
								OFFSET 15.263000 10.923401 -0.547700
								CHANNELS 3 Xrotation Yrotation Zrotation
								JOINT LeftArm
								{
									OFFSET 25.438599 -2.830597 -13.032500
									CHANNELS 3 Xrotation Yrotation Zrotation
									JOINT LeftForeArm
									{
										OFFSET 29.960503 0.000000 0.000000
										CHANNELS 3 Xrotation Yrotation Zrotation
										JOINT LeftHand
										{
											OFFSET 27.849251 0.000000 0.000000
											CHANNELS 3 Xrotation Yrotation Zrotation
											End Site
											{
												OFFSET 0 0 0
											}
										}
									}
								}
							}
						}
						JOINT RightShoulder_virtual
						{
							OFFSET 0.000000 0.000000 0.000000
							CHANNELS 3 Xrotation Yrotation Zrotation
							JOINT RightShoulder
							{
								OFFSET -15.263000 10.923401 -0.547700
								CHANNELS 3 Xrotation Yrotation Zrotation
								JOINT RightArm
								{
									OFFSET -25.438599 -2.830597 -13.032500
									CHANNELS 3 Xrotation Yrotation Zrotation
									JOINT RightForeArm
									{
										OFFSET -29.960503 0.000000 0.000000
										CHANNELS 3 Xrotation Yrotation Zrotation
										JOINT RightHand
										{
											OFFSET -27.849251 0.000000 0.000000
											CHANNELS 3 Xrotation Yrotation Zrotation
											End Site
											{
												OFFSET 0 0 0
											}
										}
									}
								}
							}
						}
					}
				}
			}
		}
	}
}
MOTION
Frames: 5
Frame Time: 0.03333333
2.781205 57.863525 6.666619 0.000000 0.000000 0.000000 -16.217681 -25.550235 0.974373 -67.820022 -0.981712 23.075091 81.326830 -0.602448 0.496522 23.180749 -2.473734 -5.486317 0.000000 0.000000 0.000000 -25.064352 17.557826 1.458382 -64.311012 5.130744 -17.268146 81.170364 -1.745298 -0.614029 23.684625 -1.722503 8.540763 0.000000 0.000000 0.000000 8.990805 7.259663 0.869705 6.145469 -0.798554 3.555756 15.114111 -0.908552 -2.041442 9.833475 -0.852440 -1.959852 0.000000 0.000000 0.000000 11.107920 -0.702473 -1.831951 3.075538 -1.131650 0.723637 0.000000 0.000000 0.000000 12.971209 0.354470 0.638467 3.736250 -11.550578 7.332174 -57.025157 -37.994222 -37.849230 -173.812209 -86.324377 -162.934354 0.000000 0.000000 0.000000 11.311206 0.837194 -1.626883 3.081634 3.706301 -7.367127 -52.235668 48.095327 29.347298 -169.177816 70.538874 160.864492 0.000000 0.000000 0.000000 
2.720748 57.836342 6.627122 0.000000 0.000000 0.000000 -16.191505 -25.583102 0.942496 -67.820336 -0.963701 23.067031 81.286122 -0.603323 0.505537 23.178879 -2.478934 -5.474533 0.000000 0.000000 0.000000 -25.126461 17.609945 1.492737 -64.372948 5.142956 -17.257101 81.135626 -1.784989 -0.596628 23.691645 -1.777991 8.522869 0.000000 0.000000 0.000000 8.997153 7.184727 0.865625 6.568111 -0.748521 3.538115 15.149928 -0.865188 -2.049812 9.816298 -0.831114 -1.944321 0.000000 0.000000 0.000000 11.442116 -0.701038 -1.882305 3.253560 -1.110792 0.689933 0.000000 0.000000 0.000000 12.962353 0.395205 0.639375 3.758398 -11.342741 7.381454 -56.967241 -38.126662 -37.875373 -174.345797 -86.339322 -163.556803 0.000000 0.000000 0.000000 11.353976 0.844602 -1.639723 3.209319 3.775497 -7.445402 -51.642186 48.064222 28.944757 -168.958376 71.071288 160.721591 0.000000 0.000000 0.000000 
2.664364 57.824726 6.593083 0.000000 0.000000 0.000000 -16.167198 -25.570075 0.916432 -67.818642 -0.938535 23.060201 81.240312 -0.605520 0.512223 23.170510 -2.484174 -5.467653 0.000000 0.000000 0.000000 -25.180768 17.672285 1.514085 -64.426326 5.161795 -17.254064 81.098101 -1.822873 -0.580445 23.687397 -1.831524 8.505635 0.000000 0.000000 0.000000 9.014498 7.085011 0.868507 6.994463 -0.677468 3.492292 15.187481 -0.822563 -2.051252 9.798873 -0.812502 -1.923374 0.000000 0.000000 0.000000 11.783384 -0.696059 -1.936748 3.437052 -1.087758 0.650702 0.000000 0.000000 0.000000 12.952515 0.429809 0.643064 3.783857 -11.140147 7.412748 -56.838153 -38.235939 -37.901987 -174.812736 -86.392611 -164.139486 0.000000 0.000000 0.000000 11.402598 0.857641 -1.642652 3.352231 3.891650 -7.489991 -50.969839 48.058133 28.543323 -168.748662 71.664940 160.606024 0.000000 0.000000 0.000000 
2.613266 57.831264 6.564147 0.000000 0.000000 0.000000 -16.148504 -25.508289 0.897185 -67.818519 -0.907053 23.055568 81.192002 -0.610102 0.516328 23.155793 -2.490544 -5.467206 0.000000 0.000000 0.000000 -25.224802 17.748083 1.522725 -64.468578 5.187579 -17.258870 81.059415 -1.857929 -0.565567 23.672705 -1.881753 8.489958 0.000000 0.000000 0.000000 9.039594 6.953381 0.879423 7.420355 -0.575661 3.414011 15.212681 -0.783658 -2.047203 9.772064 -0.797872 -1.897420 0.000000 0.000000 0.000000 12.095211 -0.687531 -1.989241 3.608536 -1.062611 0.608718 0.000000 0.000000 0.000000 12.931402 0.457092 0.649047 3.807272 -10.939709 7.420999 -56.647622 -38.318765 -37.913017 -175.213422 -86.488377 -164.674099 0.000000 0.000000 0.000000 11.442285 0.871322 -1.637972 3.499711 4.041727 -7.511118 -50.269168 48.063611 28.163804 -168.559356 72.283994 160.516194 0.000000 0.000000 0.000000 
2.568000 57.856071 6.540231 0.000000 0.000000 0.000000 -16.138555 -25.398917 0.885387 -67.823102 -0.870683 23.053931 81.144539 -0.617741 0.517795 23.136091 -2.498848 -5.474018 0.000000 0.000000 0.000000 -25.257220 17.838762 1.519364 -64.498419 5.220169 -17.271132 81.022491 -1.889376 -0.552156 23.650082 -1.927455 8.476281 0.000000 0.000000 0.000000 9.068574 6.783367 0.898941 7.842649 -0.435208 3.299350 15.211721 -0.751592 -2.039355 9.727041 -0.788479 -1.867092 0.000000 0.000000 0.000000 12.342129 -0.676367 -2.033250 3.751019 -1.035995 0.567148 0.000000 0.000000 0.000000 12.888525 0.475830 0.656711 3.823110 -10.739916 7.402402 -56.413131 -38.372068 -37.895037 -175.530657 -86.627918 -165.133333 0.000000 0.000000 0.000000 11.457961 0.880473 -1.628467 3.640430 4.210728 -7.520810 -49.597671 48.065476 27.829529 -168.400049 72.889525 160.448629 0.000000 0.000000 0.000000 
